<?xml version="1.0" standalone="no"?>
<!DOCTYPE svg PUBLIC "-//W3C//DTD SVG 20010904//EN"
 "http://www.w3.org/TR/2001/REC-SVG-20010904/DTD/svg10.dtd">
<svg version="1.0" xmlns="http://www.w3.org/2000/svg"
 width="2000.000000pt" height="2000.000000pt" viewBox="0 0 2000.000000 2000.000000"
 preserveAspectRatio="xMidYMid meet">
<metadata>
Created by potrace 1.14, written by Peter Selinger 2001-2017
</metadata>
<g transform="translate(0.000000,2000.000000) scale(0.100000,-0.100000)"
fill="#000000" stroke="none">
<path d="M3942 15927 c-26 -31 -23 -95 13 -312 307 -1852 813 -3071 1654
-3989 322 -350 809 -732 1165 -912 149 -75 166 -52 81 106 -201 379 -302 596
-610 1320 -265 622 -431 960 -691 1412 -235 407 -444 726 -794 1208 -363 501
-546 781 -665 1020 -31 63 -66 125 -78 138 -23 24 -59 29 -75 9z"/>
<path d="M6986 14168 c-11 -33 -15 -996 -6 -1248 28 -784 91 -1327 210 -1793
219 -863 665 -1536 1318 -1993 126 -88 154 -116 145 -140 -9 -23 -35 -16 -129
32 -258 135 -658 395 -1014 659 -559 415 -1293 877 -2060 1295 -820 448 -1164
727 -1902 1542 -93 102 -175 189 -183 192 -38 14 1 -109 165 -519 287 -719
611 -1340 943 -1808 625 -879 1360 -1384 2283 -1571 322 -66 566 -86 1079 -90
507 -4 685 -23 1267 -132 345 -65 367 -54 191 98 -312 271 -433 545 -633 1438
-138 617 -220 923 -359 1340 -182 543 -292 780 -701 1510 -157 279 -345 659
-465 935 -48 110 -96 215 -107 233 -21 33 -36 41 -42 20z"/>
<path d="M4770 8908 c0 -28 378 -404 550 -548 625 -520 1335 -887 2147 -1109
1105 -302 2431 -320 3727 -50 381 79 666 104 1001 88 802 -39 1484 -284 2109
-757 227 -172 538 -473 745 -721 315 -378 773 -1070 1059 -1599 77 -142 90
-152 200 -152 94 1 301 39 327 60 8 7 15 28 15 49 0 30 -21 70 -114 213 -708
1092 -1362 1764 -2311 2375 -1353 872 -2609 1390 -3775 1557 -308 44 -416 51
-795 50 -383 0 -461 -6 -872 -69 -721 -108 -1446 -134 -2003 -69 -719 83
-1330 292 -1894 648 -50 31 -96 56 -103 56 -7 0 -13 -10 -13 -22z"/>
</g>
</svg>
